<?xml version="1.0" encoding="UTF-8" standalone="no"?><svg xmlns="http://www.w3.org/2000/svg" xmlns:xlink="http://www.w3.org/1999/xlink" contentStyleType="text/css" height="894px" preserveAspectRatio="none" style="width:601px;height:894px;background:#FFFFFF;" version="1.1" viewBox="0 0 601 894" width="601px" zoomAndPan="magnify"><defs/><g><ellipse cx="313" cy="20" fill="#222222" rx="10" ry="10" style="stroke:#222222;stroke-width:1.0;"/><rect fill="#AFEEEE" height="33.9688" rx="12.5" ry="12.5" style="stroke:#48D1CC;stroke-width:3.0;" width="286" x="170" y="50"/><text fill="#000000" font-family="sans-serif" font-size="12" lengthAdjust="spacing" textLength="266" x="180" y="71.1387">Użytkownik wchodzi w interakcje z aplikacją</text><rect fill="#AFEEEE" height="33.9688" rx="12.5" ry="12.5" style="stroke:#48D1CC;stroke-width:3.0;" width="138" x="244" y="152.3711"/><text fill="#000000" font-family="sans-serif" font-size="12" lengthAdjust="spacing" textLength="118" x="254" y="173.5098">Przetwarzanie pliku</text><polygon fill="#AFEEEE" points="244.5,206.3398,381.5,206.3398,393.5,218.3398,381.5,230.3398,244.5,230.3398,232.5,218.3398,244.5,206.3398" style="stroke:#48D1CC;stroke-width:3.0;"/><text fill="#000000" font-family="sans-serif" font-size="11" lengthAdjust="spacing" textLength="137" x="244.5" y="222.1479">Typ pliku jest wspierany</text><text fill="#000000" font-family="sans-serif" font-size="11" lengthAdjust="spacing" textLength="17" x="215.5" y="215.7456">tak</text><text fill="#000000" font-family="sans-serif" font-size="11" lengthAdjust="spacing" textLength="17" x="393.5" y="215.7456">nie</text><rect fill="#AFEEEE" height="33.9688" rx="12.5" ry="12.5" style="stroke:#48D1CC;stroke-width:3.0;" width="176" x="77" y="240.3398"/><text fill="#000000" font-family="sans-serif" font-size="12" lengthAdjust="spacing" textLength="156" x="87" y="261.4785">Ekstrakcja danych z pliku</text><rect fill="#AFEEEE" height="33.9688" rx="12.5" ry="12.5" style="stroke:#48D1CC;stroke-width:3.0;" width="199" x="65.5" y="294.3086"/><text fill="#000000" font-family="sans-serif" font-size="12" lengthAdjust="spacing" textLength="179" x="75.5" y="315.4473">Wytwarzanie słów kluczowych</text><polygon fill="#AFEEEE" points="87.5,361.293,242.5,361.293,254.5,373.293,242.5,385.293,87.5,385.293,75.5,373.293,87.5,361.293" style="stroke:#48D1CC;stroke-width:3.0;"/><text fill="#000000" font-family="sans-serif" font-size="11" lengthAdjust="spacing" textLength="155" x="87.5" y="377.1011">Kategoryzacja oparta o tagi</text><text fill="#000000" font-family="sans-serif" font-size="11" lengthAdjust="spacing" textLength="17" x="58.5" y="370.6987">tak</text><text fill="#000000" font-family="sans-serif" font-size="11" lengthAdjust="spacing" textLength="17" x="254.5" y="370.6987">nie</text><rect fill="#AFEEEE" height="33.9688" rx="12.5" ry="12.5" style="stroke:#48D1CC;stroke-width:3.0;" width="109" x="11" y="395.293"/><text fill="#000000" font-family="sans-serif" font-size="12" lengthAdjust="spacing" textLength="89" x="21" y="416.4316">Plik przypisany</text><rect fill="#AFEEEE" height="33.9688" rx="12.5" ry="12.5" style="stroke:#48D1CC;stroke-width:3.0;" width="132" x="198.5" y="395.293"/><text fill="#000000" font-family="sans-serif" font-size="12" lengthAdjust="spacing" textLength="112" x="208.5" y="416.4316">Plik nie przypisany</text><polygon fill="#AFEEEE" points="165,435.2617,177,447.2617,165,459.2617,153,447.2617,165,435.2617" style="stroke:#48D1CC;stroke-width:3.0;"/><rect fill="#AFEEEE" height="33.9688" rx="12.5" ry="12.5" style="stroke:#48D1CC;stroke-width:3.0;" width="94" x="118" y="479.2617"/><text fill="#000000" font-family="sans-serif" font-size="12" lengthAdjust="spacing" textLength="74" x="128" y="500.4004">Dodano plik</text><rect fill="#AFEEEE" height="33.9688" rx="12.5" ry="12.5" style="stroke:#48D1CC;stroke-width:3.0;" width="201" x="360.5" y="240.3398"/><text fill="#000000" font-family="sans-serif" font-size="12" lengthAdjust="spacing" textLength="181" x="370.5" y="261.4785">Nie dodano pliku do systemu</text><polygon fill="#AFEEEE" points="313,519.2305,325,531.2305,313,543.2305,301,531.2305,313,519.2305" style="stroke:#48D1CC;stroke-width:3.0;"/><polygon fill="#AFEEEE" points="280.5,103.9688,345.5,103.9688,357.5,115.9688,345.5,127.9688,280.5,127.9688,268.5,115.9688,280.5,103.9688" style="stroke:#48D1CC;stroke-width:3.0;"/><text fill="#000000" font-family="sans-serif" font-size="11" lengthAdjust="spacing" textLength="17" x="317" y="138.1792">tak</text><text fill="#000000" font-family="sans-serif" font-size="11" lengthAdjust="spacing" textLength="65" x="280.5" y="119.7769">Podano plik</text><text fill="#000000" font-family="sans-serif" font-size="11" lengthAdjust="spacing" textLength="17" x="357.5" y="113.3745">nie</text><polygon fill="#AFEEEE" points="313,563.2305,325,575.2305,313,587.2305,301,575.2305,313,563.2305" style="stroke:#48D1CC;stroke-width:3.0;"/><rect fill="#AFEEEE" height="33.9688" rx="12.5" ry="12.5" style="stroke:#48D1CC;stroke-width:3.0;" width="168" x="229" y="655.6328"/><text fill="#000000" font-family="sans-serif" font-size="12" lengthAdjust="spacing" textLength="148" x="239" y="676.7715">Przetwarzanie zapytania</text><rect fill="#AFEEEE" height="33.9688" rx="12.5" ry="12.5" style="stroke:#48D1CC;stroke-width:3.0;" width="212" x="207" y="709.6016"/><text fill="#000000" font-family="sans-serif" font-size="12" lengthAdjust="spacing" textLength="192" x="217" y="730.7402">Pobieranie wymaganych plików</text><rect fill="#AFEEEE" height="33.9688" rx="12.5" ry="12.5" style="stroke:#48D1CC;stroke-width:3.0;" width="109" x="258.5" y="763.5703"/><text fill="#000000" font-family="sans-serif" font-size="12" lengthAdjust="spacing" textLength="89" x="268.5" y="784.709">Wyświetl wynik</text><polygon fill="#AFEEEE" points="244,607.2305,382,607.2305,394,619.2305,382,631.2305,244,631.2305,232,619.2305,244,607.2305" style="stroke:#48D1CC;stroke-width:3.0;"/><text fill="#000000" font-family="sans-serif" font-size="11" lengthAdjust="spacing" textLength="17" x="317" y="641.4409">tak</text><text fill="#000000" font-family="sans-serif" font-size="11" lengthAdjust="spacing" textLength="138" x="244" y="623.0386">Użytkowik wyszukuje plik</text><text fill="#000000" font-family="sans-serif" font-size="11" lengthAdjust="spacing" textLength="17" x="394" y="616.6362">nie</text><polygon fill="#AFEEEE" points="313,817.5391,325,829.5391,313,841.5391,301,829.5391,313,817.5391" style="stroke:#48D1CC;stroke-width:3.0;"/><ellipse cx="313" cy="872.5391" fill="none" rx="11" ry="11" style="stroke:#222222;stroke-width:1.0;"/><ellipse cx="313" cy="872.5391" fill="#222222" rx="6" ry="6" style="stroke:#111111;stroke-width:1.0;"/><line style="stroke:#181818;stroke-width:3.0;" x1="313" x2="313" y1="30" y2="50"/><polygon fill="#181818" points="309,40,313,50,317,40,313,44" style="stroke:#181818;stroke-width:1.0;"/><line style="stroke:#181818;stroke-width:3.0;" x1="165" x2="165" y1="274.3086" y2="294.3086"/><polygon fill="#181818" points="161,284.3086,165,294.3086,169,284.3086,165,288.3086" style="stroke:#181818;stroke-width:1.0;"/><line style="stroke:#181818;stroke-width:3.0;" x1="75.5" x2="65.5" y1="373.293" y2="373.293"/><line style="stroke:#181818;stroke-width:3.0;" x1="65.5" x2="65.5" y1="373.293" y2="395.293"/><polygon fill="#181818" points="61.5,385.293,65.5,395.293,69.5,385.293,65.5,389.293" style="stroke:#181818;stroke-width:1.0;"/><line style="stroke:#181818;stroke-width:3.0;" x1="254.5" x2="264.5" y1="373.293" y2="373.293"/><line style="stroke:#181818;stroke-width:3.0;" x1="264.5" x2="264.5" y1="373.293" y2="395.293"/><polygon fill="#181818" points="260.5,385.293,264.5,395.293,268.5,385.293,264.5,389.293" style="stroke:#181818;stroke-width:1.0;"/><line style="stroke:#181818;stroke-width:3.0;" x1="65.5" x2="65.5" y1="429.2617" y2="447.2617"/><line style="stroke:#181818;stroke-width:3.0;" x1="65.5" x2="153" y1="447.2617" y2="447.2617"/><polygon fill="#181818" points="143,443.2617,153,447.2617,143,451.2617,147,447.2617" style="stroke:#181818;stroke-width:1.0;"/><line style="stroke:#181818;stroke-width:3.0;" x1="264.5" x2="264.5" y1="429.2617" y2="447.2617"/><line style="stroke:#181818;stroke-width:3.0;" x1="264.5" x2="177" y1="447.2617" y2="447.2617"/><polygon fill="#181818" points="187,443.2617,177,447.2617,187,451.2617,183,447.2617" style="stroke:#181818;stroke-width:1.0;"/><line style="stroke:#181818;stroke-width:3.0;" x1="165" x2="165" y1="328.2773" y2="361.293"/><polygon fill="#181818" points="161,351.293,165,361.293,169,351.293,165,355.293" style="stroke:#181818;stroke-width:1.0;"/><line style="stroke:#181818;stroke-width:3.0;" x1="165" x2="165" y1="459.2617" y2="479.2617"/><polygon fill="#181818" points="161,469.2617,165,479.2617,169,469.2617,165,473.2617" style="stroke:#181818;stroke-width:1.0;"/><line style="stroke:#181818;stroke-width:3.0;" x1="232.5" x2="165" y1="218.3398" y2="218.3398"/><line style="stroke:#181818;stroke-width:3.0;" x1="165" x2="165" y1="218.3398" y2="240.3398"/><polygon fill="#181818" points="161,230.3398,165,240.3398,169,230.3398,165,234.3398" style="stroke:#181818;stroke-width:1.0;"/><line style="stroke:#181818;stroke-width:3.0;" x1="393.5" x2="461" y1="218.3398" y2="218.3398"/><line style="stroke:#181818;stroke-width:3.0;" x1="461" x2="461" y1="218.3398" y2="240.3398"/><polygon fill="#181818" points="457,230.3398,461,240.3398,465,230.3398,461,234.3398" style="stroke:#181818;stroke-width:1.0;"/><line style="stroke:#181818;stroke-width:3.0;" x1="165" x2="165" y1="513.2305" y2="531.2305"/><line style="stroke:#181818;stroke-width:3.0;" x1="165" x2="301" y1="531.2305" y2="531.2305"/><polygon fill="#181818" points="291,527.2305,301,531.2305,291,535.2305,295,531.2305" style="stroke:#181818;stroke-width:1.0;"/><line style="stroke:#181818;stroke-width:3.0;" x1="461" x2="461" y1="274.3086" y2="531.2305"/><line style="stroke:#181818;stroke-width:3.0;" x1="461" x2="325" y1="531.2305" y2="531.2305"/><polygon fill="#181818" points="335,527.2305,325,531.2305,335,535.2305,331,531.2305" style="stroke:#181818;stroke-width:1.0;"/><line style="stroke:#181818;stroke-width:3.0;" x1="313" x2="313" y1="186.3398" y2="206.3398"/><polygon fill="#181818" points="309,196.3398,313,206.3398,317,196.3398,313,200.3398" style="stroke:#181818;stroke-width:1.0;"/><line style="stroke:#181818;stroke-width:3.0;" x1="313" x2="313" y1="127.9688" y2="152.3711"/><polygon fill="#181818" points="309,142.3711,313,152.3711,317,142.3711,313,146.3711" style="stroke:#181818;stroke-width:1.0;"/><line style="stroke:#181818;stroke-width:3.0;" x1="357.5" x2="575.5" y1="115.9688" y2="115.9688"/><polygon fill="#181818" points="571.5,331.293,575.5,341.293,579.5,331.293,575.5,335.293" style="stroke:#181818;stroke-width:3.0;"/><line style="stroke:#181818;stroke-width:3.0;" x1="575.5" x2="575.5" y1="115.9688" y2="575.2305"/><line style="stroke:#181818;stroke-width:3.0;" x1="575.5" x2="325" y1="575.2305" y2="575.2305"/><polygon fill="#181818" points="335,571.2305,325,575.2305,335,579.2305,331,575.2305" style="stroke:#181818;stroke-width:1.0;"/><line style="stroke:#181818;stroke-width:3.0;" x1="313" x2="313" y1="543.2305" y2="563.2305"/><polygon fill="#181818" points="309,553.2305,313,563.2305,317,553.2305,313,557.2305" style="stroke:#181818;stroke-width:1.0;"/><line style="stroke:#181818;stroke-width:3.0;" x1="313" x2="313" y1="83.9688" y2="103.9688"/><polygon fill="#181818" points="309,93.9688,313,103.9688,317,93.9688,313,97.9688" style="stroke:#181818;stroke-width:1.0;"/><line style="stroke:#181818;stroke-width:3.0;" x1="313" x2="313" y1="689.6016" y2="709.6016"/><polygon fill="#181818" points="309,699.6016,313,709.6016,317,699.6016,313,703.6016" style="stroke:#181818;stroke-width:1.0;"/><line style="stroke:#181818;stroke-width:3.0;" x1="313" x2="313" y1="743.5703" y2="763.5703"/><polygon fill="#181818" points="309,753.5703,313,763.5703,317,753.5703,313,757.5703" style="stroke:#181818;stroke-width:1.0;"/><line style="stroke:#181818;stroke-width:3.0;" x1="313" x2="313" y1="631.2305" y2="655.6328"/><polygon fill="#181818" points="309,645.6328,313,655.6328,317,645.6328,313,649.6328" style="stroke:#181818;stroke-width:1.0;"/><line style="stroke:#181818;stroke-width:3.0;" x1="394" x2="429" y1="619.2305" y2="619.2305"/><polygon fill="#181818" points="425,716.5859,429,726.5859,433,716.5859,429,720.5859" style="stroke:#181818;stroke-width:3.0;"/><line style="stroke:#181818;stroke-width:3.0;" x1="429" x2="429" y1="619.2305" y2="829.5391"/><line style="stroke:#181818;stroke-width:3.0;" x1="429" x2="325" y1="829.5391" y2="829.5391"/><polygon fill="#181818" points="335,825.5391,325,829.5391,335,833.5391,331,829.5391" style="stroke:#181818;stroke-width:1.0;"/><line style="stroke:#181818;stroke-width:3.0;" x1="313" x2="313" y1="797.5391" y2="817.5391"/><polygon fill="#181818" points="309,807.5391,313,817.5391,317,807.5391,313,811.5391" style="stroke:#181818;stroke-width:1.0;"/><line style="stroke:#181818;stroke-width:3.0;" x1="313" x2="313" y1="587.2305" y2="607.2305"/><polygon fill="#181818" points="309,597.2305,313,607.2305,317,597.2305,313,601.2305" style="stroke:#181818;stroke-width:1.0;"/><line style="stroke:#181818;stroke-width:3.0;" x1="313" x2="313" y1="841.5391" y2="861.5391"/><polygon fill="#181818" points="309,851.5391,313,861.5391,317,851.5391,313,855.5391" style="stroke:#181818;stroke-width:1.0;"/><!--MD5=[9e591fcf8f0bda2974542f8af1d17f28]
@startuml
skinparam ActivityBorderColor MediumTurquoise
skinparam ActivityBackgroundColor PaleTurquoise
skinparam ActivityDiamondBorderColor MediumTurquoise
skinparam ActivityBorderThickness 3
start
:Użytkownik wchodzi w interakcje z aplikacją;
if (Podano plik) then (tak)
:Przetwarzanie pliku;
if (Typ pliku jest wspierany) then (tak)
:Ekstrakcja danych z pliku;
:Wytwarzanie słów kluczowych;
if (Kategoryzacja oparta o tagi) then (tak)
:Plik przypisany;
else (nie)
:Plik nie przypisany;
endif
:Dodano plik;
else (nie)
:Nie dodano pliku do systemu;
endif
else (nie)
endif
if (Użytkowik wyszukuje plik) then (tak)
:Przetwarzanie zapytania;
:Pobieranie wymaganych plików;
:Wyświetl wynik;
else (nie)
endif
stop
@enduml

PlantUML version 1.2022.7(Mon Aug 22 17:01:30 UTC 2022)
(GPL source distribution)
Java Runtime: OpenJDK Runtime Environment
JVM: OpenJDK 64-Bit Server VM
Default Encoding: UTF-8
Language: en
Country: null
--></g></svg>